<?xml version="1.0" encoding="utf-8"?>
<!-- Generator: Adobe Illustrator 16.0.0, SVG Export Plug-In . SVG Version: 6.00 Build 0)  -->
<!DOCTYPE svg PUBLIC "-//W3C//DTD SVG 1.1//EN" "http://www.w3.org/Graphics/SVG/1.1/DTD/svg11.dtd">
<svg version="1.1" id="pizza_wheel" xmlns="http://www.w3.org/2000/svg" xmlns:xlink="http://www.w3.org/1999/xlink" x="0px"
	 y="0px" width="310px" height="312px" viewBox="0 0 310 312" enable-background="new 0 0 310 312" xml:space="preserve">
<g>
	
		<rect x="152.414" y="144.502" transform="matrix(-0.7071 0.7071 -0.7071 -0.7071 386.0215 159.7921)" fill="#B0C4D8" width="15.005" height="30.684"/>
	<path fill="#D5E3EF" d="M224.182,156c-37.5,0-68.182,30.682-68.182,68.182s30.682,68.182,68.182,68.182
		s68.182-30.682,68.182-68.182S261.682,156,224.182,156"/>
	<path fill="#D98B37" d="M19.636,46.909c0,2.727,0.683,4.774,2.727,6.818l110.456,110.456c8.18-12.275,19.089-23.185,31.365-31.365
		L53.728,22.363c-2.044-2.044-4.092-2.727-6.818-2.727s-4.774,0.683-6.818,2.727L22.363,40.091
		C20.319,41.456,19.636,44.183,19.636,46.909"/>
	<path fill="#014463" d="M134.181,181.908c-2.044,0-3.409-0.68-4.771-2.045L12.818,63.272C8.727,59.181,6,53.045,6,46.909
		s2.727-12.271,6.818-16.363l17.728-17.728C34.638,8.044,40.773,6,46.909,6s12.271,2.044,16.363,6.818L179.863,129.41
		c1.365,1.362,2.045,3.409,2.045,5.453c0,2.047-1.365,4.092-3.409,4.774c-16.36,8.862-29.317,21.816-38.18,38.183
		c-1.365,2.044-2.729,3.409-4.774,3.409C134.863,181.908,134.863,181.908,134.181,181.908 M46.909,19.636
		c-2.727,0-4.774,0.683-6.818,2.727L22.363,40.091c-2.044,1.365-2.727,4.092-2.727,6.818s0.683,4.774,2.727,6.818l110.456,110.456
		c8.18-12.275,19.089-23.185,31.365-31.365L53.728,22.363C51.683,20.319,49.636,19.636,46.909,19.636"/>
	<path fill="#C87729" d="M141.681,138.955c-4.774,6.136-14.319,6.136-19.772,0.682L38.726,55.771
		c-4.092-3.409-9.545-5.453-14.998-3.409c-1.365,0-2.047,0.683-1.365,1.365l110.456,110.456
		c8.18-12.275,19.089-23.185,31.365-31.365L156,124.636L141.681,138.955z"/>
	<path fill="#014463" d="M46.909,40.091c3.762,0,6.818,3.056,6.818,6.818c0,3.762-3.057,6.818-6.818,6.818
		c-3.762,0-6.818-3.057-6.818-6.818C40.091,43.147,43.147,40.091,46.909,40.091"/>
	<path fill="#ECF0F9" d="M163.504,255.549l92.039-92.045c-25.908-13.64-57.955-9.548-79.768,12.271
		C154.638,197.595,150.547,229.635,163.504,255.549"/>
	<path fill="#ECF0F9" d="M268.5,172.359L173.045,268.5c3.409,3.409,6.818,6.818,10.907,9.541l95.454-95.454
		C275.997,179.178,272.588,175.769,268.5,172.359"/>
	<path fill="#B0C4D8" d="M185.683,185.583c21.308-21.3,55.838-21.3,77.145,0c21.3,21.294,21.3,55.831,0,77.131
		c-21.307,21.307-55.837,21.307-77.145,0C164.39,241.414,164.39,206.877,185.683,185.583"/>
	<path fill="#D5E3EF" d="M263.047,185.316c-1.365-1.364-2.044-2.044-3.409-3.408l-77.044,77.044
		c1.365,1.364,2.044,2.729,3.409,3.409c2.044,2.044,4.773,4.095,7.497,6.139l75.686-75.686
		C267.135,190.091,265.091,188.047,263.047,185.316"/>
	<path fill="#D5E3EF" d="M224.182,169.637c-30.003,0-54.545,24.543-54.545,54.545c0,7.498,1.364,15.002,4.088,21.134l71.591-71.591
		C239.184,171.002,231.679,169.637,224.182,169.637"/>
	<path fill="#014463" d="M224.182,210.545c7.524,0,13.637,6.113,13.637,13.637c0,7.524-6.112,13.637-13.637,13.637
		c-7.523,0-13.637-6.112-13.637-13.637C210.545,216.658,216.658,210.545,224.182,210.545"/>
	<path fill="#014463" d="M224.182,142.364c-15.001,0-28.638,4.091-40.909,10.91l-10.228-10.228
		c15.002-9.544,32.047-15.001,50.458-15.001c4.088,0,6.817-2.727,6.817-6.818s-2.729-6.818-6.817-6.818
		c-60.006,0-109.095,49.089-109.095,109.095c0,4.088,2.727,6.817,6.818,6.817s6.818-2.729,6.818-6.817
		c0-18.411,5.457-36.142,15.001-50.458l10.228,10.228c-6.818,12.271-10.91,25.908-10.91,40.909
		c0,44.998,36.821,81.818,81.818,81.818S306,269.18,306,224.182C306,179.185,269.179,142.364,224.182,142.364 M151.226,162.139
		c3.409-4.095,6.818-7.504,10.913-10.913l9.542,9.547c-4.089,3.41-7.497,6.818-10.906,10.907L151.226,162.139z M224.182,292.363
		c-37.5,0-68.182-30.682-68.182-68.182S186.682,156,224.182,156s68.182,30.682,68.182,68.182S261.682,292.363,224.182,292.363"/>
</g>
</svg>
