<?xml version="1.0" encoding="UTF-8"?>
<!DOCTYPE svg PUBLIC "-//W3C//DTD SVG 1.1//EN" "http://www.w3.org/Graphics/SVG/1.1/DTD/svg11.dtd">
<svg version="1.1" xmlns="http://www.w3.org/2000/svg" xmlns:xlink="http://www.w3.org/1999/xlink" x="0" y="0" width="508" height="709" viewBox="0, 0, 508, 709">
  <defs>
    <clipPath id="Clip_1">
      <path d="M0.06,0.236 L507.314,0.236 L507.314,708.94 L0.06,708.94 z"/>
    </clipPath>
    <linearGradient id="Gradient_1" gradientUnits="userSpaceOnUse" x1="174.539" y1="487.789" x2="174.539" y2="467.453">
      <stop offset="0" stop-color="#E6D5A8"/>
      <stop offset="0.781" stop-color="#E6D5A8"/>
      <stop offset="1" stop-color="#AB9380"/>
    </linearGradient>
    <linearGradient id="Gradient_2" gradientUnits="userSpaceOnUse" x1="127.147" y1="499.365" x2="130.781" y2="509.927">
      <stop offset="0" stop-color="#E6D5A8"/>
      <stop offset="0.781" stop-color="#E6D5A8"/>
      <stop offset="1" stop-color="#AB9380"/>
    </linearGradient>
    <linearGradient id="Gradient_3" gradientUnits="userSpaceOnUse" x1="40.341" y1="446.86" x2="32.842" y2="427.961">
      <stop offset="0" stop-color="#E6D5A8"/>
      <stop offset="0.781" stop-color="#E6D5A8"/>
      <stop offset="1" stop-color="#AB9380"/>
    </linearGradient>
  </defs>
  <g id="Layer_1">
    <path d="M129.393,645.864 L52.599,409.506 L253.656,263.428 L454.713,409.506 L377.919,645.864 L129.393,645.864" fill="#D6776C"/>
    <path d="M78.025,290.075 L93.781,243.052 L143.373,243.505 L158.264,290.811 L117.879,319.593 L78.025,290.075" fill="#D6776C"/>
    <path d="M415.193,619.081 L430.816,579.902 L472.905,582.653 L483.294,623.535 L447.628,646.048 L415.193,619.081" fill="#D6776C"/>
    <g clip-path="url(#Clip_1)">
      <path d="M224.812,554.646 L265.81,561.625 C265.81,561.625 255.342,625.303 274.533,668.92 L248.365,680.258 C248.365,680.258 216.96,613.09 224.812,554.646" fill="#1A1715"/>
      <path d="M277.61,667.855 C282.452,675.052 274.063,689.169 258.878,699.391 C243.689,709.614 227.456,712.067 222.611,704.874 C217.769,697.678 226.155,683.56 241.345,673.339 C256.528,663.116 272.767,660.663 277.61,667.855" fill="#1A1715"/>
    </g>
    <path d="M283.669,565.976 L324.988,563.145 C324.988,563.145 325.944,617.698 352.374,649.554 L328.777,664.349 C328.777,664.349 286.262,615.68 283.669,565.976" fill="#1A1715"/>
    <path d="M356.991,652.154 C361.832,659.351 353.443,673.467 338.258,683.689 C323.069,693.912 306.835,696.366 301.991,689.173 C297.149,681.976 305.535,667.859 320.725,657.636 C335.908,647.415 352.148,644.961 356.991,652.154" fill="#1A1715"/>
    <path d="M326.292,411.588 C332.105,429.034 322.221,447.063 322.221,447.063 C298.958,449.969 251.274,448.807 251.274,448.807 L255.342,474.976 C308.846,484.283 338.505,476.721 338.505,476.721 C387.933,433.105 346.646,372.044 346.646,372.044 C303.029,333.663 258.251,360.415 258.251,360.415 C258.251,360.415 212.893,399.379 215.799,428.455 L229.172,461.602 L201.841,554.067 C201.841,554.067 268.141,607.567 357.696,554.067 L351.756,462.291" fill="#FFFFFE"/>
    <path d="M326.292,411.588 C332.105,429.034 322.221,447.063 322.221,447.063 C298.958,449.969 251.274,448.807 251.274,448.807 L255.342,474.976 C308.846,484.283 338.505,476.721 338.505,476.721 C387.933,433.105 346.646,372.044 346.646,372.044 C303.029,333.663 258.251,360.415 258.251,360.415 C258.251,360.415 212.893,399.379 215.799,428.455 L229.172,461.602 L201.841,554.067 C201.841,554.067 268.141,607.567 357.696,554.067 L351.756,462.291" fill-opacity="0" stroke="#3D3421" stroke-width="4.945"/>
    <g>
      <path d="M407.519,113.78 C407.519,113.78 334.954,88.8 367.073,38.24 C399.191,-12.319 480.087,-9.938 502.097,51.921 C502.097,51.921 530.051,158.986 407.519,113.78" fill="#665435"/>
      <path d="M407.519,113.78 C407.519,113.78 334.954,88.8 367.073,38.24 C399.191,-12.319 480.087,-9.938 502.097,51.921 C502.097,51.921 530.051,158.986 407.519,113.78 z" fill-opacity="0" stroke="#3D3421" stroke-width="4.945"/>
      <path d="M449.737,311.954 C449.737,311.954 553.373,194.087 406.462,97.857 C406.462,97.857 331.87,67.108 265.251,97.857 C198.628,128.605 175.281,220.28 196.353,279.498 L343.827,327.898 L449.737,311.954" fill="#665435"/>
      <path d="M449.737,311.954 C449.737,311.954 553.373,194.087 406.462,97.857 C406.462,97.857 331.87,67.108 265.251,97.857 C198.628,128.605 175.281,220.28 196.353,279.498 L343.827,327.898 L449.737,311.954 z" fill-opacity="0" stroke="#3D3421" stroke-width="4.945"/>
      <path d="M96.583,375.823 C61.684,383.163 32.181,401.549 15.642,426.274 C3.872,443.867 -0.114,462.867 4.111,481.222 C8.343,499.578 20.317,515.225 38.731,526.473 C64.613,542.274 99.472,547.126 134.367,539.79 C169.267,532.45 198.773,514.063 215.312,489.34 C227.081,471.746 231.067,452.746 226.842,434.39 C222.611,416.035 210.636,400.388 192.222,389.143 C166.339,373.34 131.481,368.484 96.583,375.823" fill="#695433"/>
      <path d="M96.583,375.823 C61.684,383.163 32.181,401.549 15.642,426.274 C3.872,443.867 -0.114,462.867 4.111,481.222 C8.343,499.578 20.317,515.225 38.731,526.473 C64.613,542.274 99.472,547.126 134.367,539.79 C169.267,532.45 198.773,514.063 215.312,489.34 C227.081,471.746 231.067,452.746 226.842,434.39 C222.611,416.035 210.636,400.388 192.222,389.143 C166.339,373.34 131.481,368.484 96.583,375.823 z" fill-opacity="0" stroke="#3D3421" stroke-width="4.945"/>
    </g>
    <path d="M96.535,366.903 C63.197,374.242 35.017,392.629 19.213,417.353 C7.968,434.946 4.162,453.946 8.2,472.302 C12.242,490.658 23.677,506.305 41.273,517.553 C65.994,533.353 99.294,538.206 132.626,530.869 C165.965,523.529 194.152,505.143 209.956,480.418 C221.197,462.826 225.002,443.826 220.964,425.469 C216.922,407.113 205.488,391.466 187.895,380.222 C163.17,364.419 129.873,359.563 96.535,366.903" fill="#8D7049"/>
    <path d="M96.535,366.903 C63.197,374.242 35.017,392.629 19.213,417.353 C7.968,434.946 4.162,453.946 8.2,472.302 C12.242,490.658 23.677,506.305 41.273,517.553 C65.994,533.353 99.294,538.206 132.626,530.869 C165.965,523.529 194.152,505.143 209.956,480.418 C221.197,462.826 225.002,443.826 220.964,425.469 C216.922,407.113 205.488,391.466 187.895,380.222 C163.17,364.419 129.873,359.563 96.535,366.903 z" fill-opacity="0" stroke="#3D3421" stroke-width="4.945"/>
    <path d="M211.305,427.595 C220.095,467.538 183.923,509.45 130.5,521.209 C77.085,532.967 26.654,510.121 17.863,470.175 C9.069,430.234 45.246,388.321 98.661,376.563 C152.083,364.804 202.513,387.651 211.305,427.595" fill="#AAA286"/>
    <path d="M211.305,427.595 C220.095,467.538 183.923,509.45 130.5,521.209 C77.085,532.967 26.654,510.121 17.863,470.175 C9.069,430.234 45.246,388.321 98.661,376.563 C152.083,364.804 202.513,387.651 211.305,427.595 z" fill-opacity="0" stroke="#3D3421" stroke-width="4.945"/>
    <path d="M210.457,422.332 C218.733,459.925 182.136,499.933 128.714,511.692 C75.3,523.451 25.288,502.509 17.011,464.915 C8.738,427.32 45.331,387.313 98.749,375.554 C152.167,363.795 202.179,384.737 210.457,422.332" fill="#E6D5A8"/>
    <path d="M68.165,415.664 C68.993,409.771 68.409,400.06 72.145,396.002 C76.342,391.436 92.146,391.197 97.455,392.663 C100.821,393.593 101.986,396.469 106.001,396.012 C110.223,395.539 111.139,392.966 114.219,390.162 C120.223,384.686 128.792,380.703 136.975,380.959 C146.345,381.255 147.002,389.967 155.518,390.778 C165.741,391.76 174.726,387.385 181.408,397.153 C183.963,400.884 184.855,404.299 186.666,408.429 C187.946,411.353 191.514,415.104 192.093,418.287 C193.532,426.206 189.504,421.19 187.817,424.259 C184.221,430.806 193.02,437.774 196.638,441.522 C203.378,448.498 209.024,451.847 200.557,460.522 C194.056,467.187 188.086,466.308 179.601,466.087 C174.231,465.951 163.615,462.871 160.888,467.861 C156.356,476.156 169.161,490.051 163.961,496.365 C160.751,500.273 144.253,499.623 139.373,498.832 C130.787,497.435 131.932,488.017 123.944,498.144 C118.908,504.523 113.054,508.919 104.808,503.579 C98.648,499.591 99.37,494.365 98.464,487.782 C86.122,487.088 63.943,493.888 57.302,479.298 C43.767,480.175 28.385,475.678 23.718,459.523 C18.719,442.22 54.391,454.532 62.76,450.9 C64.161,450.293 70.161,446.954 70.604,445.642 C72.022,441.382 66.93,440.484 64.062,438.732 C58.903,435.576 53.124,433.388 48.415,429.927 C42.203,425.357 42.288,419.974 49.614,416.174 C54.193,413.796 59.877,414.068 64.573,415.011 C65.05,415.104 66.563,415.513 67.564,415.664" fill="#8B2D2F"/>
    <path d="M162.427,464.666 C154.942,463.436 147.073,465.521 140.225,462.58 C136.74,461.085 130.36,456.689 133.175,452.228 C134.603,449.965 143.455,448.818 146.001,448.242 C149.446,447.462 153.392,448.47 156.962,447.782 C162.921,446.64 162.034,443.42 164.64,439.339 C165.611,437.812 166.087,436.759 168.18,436.657 C172.14,436.465 171.171,439.134 173.223,441.131 C175.506,443.355 174.749,442.261 176.719,442.531 C178.879,442.828 180.27,441.877 182.072,443.757 C183.527,445.27 183.936,448.865 183.316,450.869 C181.959,455.264 180.089,452.916 177.501,454.972 C174.77,457.146 176.467,461.966 174.013,463.91 C171.935,465.552 164.628,464.223 161.985,464.223" fill="#F8F2C1"/>
    <path d="M158.857,417.081 C151.374,415.85 143.506,417.935 136.653,414.996 C133.171,413.5 126.793,409.103 129.608,404.643 C131.036,402.381 139.884,401.232 142.433,400.657 C145.875,399.877 149.824,400.884 153.395,400.197 C159.354,399.055 158.462,395.835 161.071,391.753 C162.042,390.227 162.516,389.174 164.613,389.071 C168.569,388.881 167.604,391.549 169.655,393.546 C171.938,395.77 171.177,394.676 173.152,394.945 C175.309,395.242 176.699,394.292 178.504,396.173 C179.957,397.685 180.368,401.281 179.748,403.284 C178.388,407.679 176.521,405.332 173.932,407.386 C171.2,409.56 172.896,414.382 170.442,416.324 C168.367,417.966 161.058,416.637 158.414,416.637" fill="#F8F2C1"/>
    <path d="M97.396,494.515 C90.033,496.338 83.627,501.357 76.169,501.357 C72.376,501.357 64.784,499.834 65.608,494.625 C66.031,491.98 73.711,487.434 75.824,485.901 C78.68,483.826 82.707,483.195 85.716,481.154 C90.742,477.757 88.653,475.147 89.44,470.37 C89.734,468.584 89.754,467.429 91.635,466.509 C95.199,464.771 95.363,467.603 98.034,468.632 C101.012,469.773 99.88,469.068 101.803,468.54 C103.902,467.961 104.801,466.537 107.2,467.555 C109.135,468.373 110.932,471.515 111.152,473.6 C111.637,478.176 108.993,476.756 107.425,479.662 C105.769,482.739 109.231,486.5 107.742,489.254 C106.484,491.582 99.244,493.241 96.814,494.283" fill="#F8F2C1"/>
    <path d="M83.417,405.254 C83.417,405.254 90.551,389.787 113.156,405.845 C113.156,405.845 98.286,421.316 83.417,405.254" fill="#378343"/>
    <path d="M80.077,403.533 C80.077,403.533 82.046,405.23 83.417,405.254 C83.417,405.254 100.651,408.316 112.945,406.037" fill-opacity="0" stroke="#23482C" stroke-width="0.989"/>
    <path d="M159.205,411.959 C159.205,411.959 162.925,434.806 129.506,427.958 C129.506,427.958 133.397,400.769 159.205,411.959" fill="#378343"/>
    <path d="M163.688,412.177 C163.688,412.177 160.568,411.22 159.205,411.959 C159.205,411.959 140.102,417.92 129.573,427.61" fill-opacity="0" stroke="#23482C" stroke-width="0.989"/>
    <path d="M139.448,482.929 C139.448,482.929 126.173,501.892 107.009,473.665 C107.009,473.665 128.77,456.908 139.448,482.929" fill="#378343"/>
    <path d="M142.508,486.211 C142.508,486.211 140.94,483.352 139.448,482.929 C139.448,482.929 121.607,473.869 107.302,473.47" fill-opacity="0" stroke="#23482C" stroke-width="0.989"/>
    <path d="M139.857,454.191 C139.857,454.191 125.635,439.896 152.465,430.715 C152.465,430.715 163.573,451.196 139.857,454.191" fill="#378343"/>
    <path d="M136.613,455.909 C136.613,455.909 139.277,455.275 139.857,454.191 C139.857,454.191 150.162,442.095 152.587,430.986" fill-opacity="0" stroke="#23482C" stroke-width="0.989"/>
    <path d="M185.818,477.621 C185.818,483.236 180.766,487.789 174.538,487.789 C168.309,487.789 163.259,483.236 163.259,477.621 C163.259,472.006 168.309,467.453 174.538,467.453 C180.766,467.453 185.818,472.006 185.818,477.621 z" fill="url(#Gradient_1)"/>
    <path d="M118.301,508.319 C117.293,505.399 121.256,501.392 127.147,499.364 C133.035,497.336 138.624,498.058 139.628,500.976 C140.633,503.892 136.671,507.899 130.78,509.927 C124.892,511.954 119.304,511.236 118.301,508.319 z" fill="url(#Gradient_2)"/>
    <path d="M47.072,433.253 C49.144,438.468 46.131,444.565 40.342,446.859 C34.553,449.158 28.181,446.791 26.109,441.566 C24.038,436.349 27.05,430.254 32.839,427.961 C38.628,425.661 45.001,428.029 47.072,433.253 z" fill="url(#Gradient_3)"/>
    <path d="M74.325,452.143 C66.089,450.494 57.438,453.289 49.9,449.349 C46.067,447.345 39.051,441.461 42.145,435.492 C43.72,432.459 53.455,430.925 56.255,430.152 C60.041,429.105 64.385,430.459 68.314,429.539 C74.867,428.008 73.889,423.697 76.758,418.229 C77.828,416.188 78.349,414.777 80.652,414.64 C85.004,414.384 83.944,417.957 86.196,420.631 C88.711,423.609 87.876,422.144 90.047,422.506 C92.419,422.901 93.952,421.63 95.931,424.148 C97.53,426.174 97.982,430.986 97.301,433.672 C95.806,439.552 93.751,436.411 90.906,439.164 C87.897,442.074 89.764,448.528 87.065,451.129 C84.786,453.33 76.744,451.55 73.835,451.55" fill="#F8F2C1"/>
    <path d="M59.434,465.347 C59.434,465.347 59.36,442.201 91.284,454.232 C91.284,454.232 83.154,480.466 59.434,465.347" fill="#378343"/>
    <path d="M55.042,464.427 C55.042,464.427 57.969,465.865 59.434,465.347 C59.434,465.347 79.238,462.474 91.158,454.559" fill-opacity="0" stroke="#23482C" stroke-width="0.989"/>
    <path d="M281.593,385.514 C281.593,385.514 256.147,375.333 262.594,361.083 L337.916,360.067 C337.916,360.067 321.968,383.139 302.968,386.192 L303.306,408.246 L265.988,407.905 L281.593,385.514" fill="#8E2D2F"/>
    <path d="M281.593,385.514 C281.593,385.514 256.147,375.333 262.594,361.083 L337.916,360.067 C337.916,360.067 321.968,383.139 302.968,386.192 L303.306,408.246 L265.988,407.905 L281.593,385.514 z" fill-opacity="0" stroke="#3D3421" stroke-width="4.945"/>
    <path d="M263.486,409.843 C263.486,412.091 261.793,413.916 259.704,413.916 C257.62,413.916 255.925,412.091 255.925,409.843 C255.925,407.593 257.62,405.771 259.704,405.771 C261.793,405.771 263.486,407.593 263.486,409.843 z M261.742,433.688 C261.742,435.937 260.048,437.76 257.959,437.76 C255.875,437.76 254.18,435.937 254.18,433.688 C254.18,431.44 255.875,429.617 257.959,429.617 C260.048,429.617 261.742,431.44 261.742,433.688 z M319.54,409.226 C319.92,411.441 318.564,413.527 316.509,413.881 C314.452,414.236 312.472,412.729 312.09,410.511 C311.708,408.297 313.064,406.211 315.124,405.857 C317.18,405.502 319.157,407.008 319.54,409.226 z M321.883,433.021 C322.265,435.236 320.909,437.32 318.85,437.675 C316.793,438.03 314.816,436.523 314.434,434.305 C314.049,432.09 315.406,430.006 317.464,429.65 C319.518,429.297 321.499,430.802 321.883,433.021 z" fill-opacity="0" stroke="#3D3421" stroke-width="1.978"/>
    <path d="M246.087,479.154 L240.153,487.066 C241.692,488.228 283.61,515.376 352.898,486.105 L351.469,473.054 C287.808,499.947 246.421,479.403 246.087,479.154 z M275.699,448.807 C280.973,456.199 276.25,468.89 275.031,476.056 C274.496,476.193 273.862,475.978 273.372,476.142" fill-opacity="0" stroke="#3D3421" stroke-width="4.945"/>
    <path d="M250.691,453.463 C246.777,452.617 242.108,449.441 238.768,446.933 C236.779,445.437 233.187,440.126 230.338,440.606 C223.391,441.778 230.6,452.732 229.784,456.917 C229.167,460.072 227.027,462.461 226.27,465.674 C225.132,470.503 226.052,470.251 223.217,473.814 C219.598,478.363 212.848,483.714 214.143,490.59 C220.137,490.892 228.764,492.013 234.42,490.113 C240.895,487.939 244.115,481.767 247.171,476.721 C249.121,473.507 249.734,472.878 253.019,471.488 C256.774,469.896 257.367,472.22 259.415,468.011 C262.785,461.091 258.567,453.383 251.274,453.463" fill="#EEC3A0"/>
    <path d="M250.691,453.463 C246.777,452.617 242.108,449.441 238.768,446.933 C236.779,445.437 233.187,440.126 230.338,440.606 C223.391,441.778 230.6,452.732 229.784,456.917 C229.167,460.072 227.027,462.461 226.27,465.674 C225.132,470.503 226.052,470.251 223.217,473.814 C219.598,478.363 212.848,483.714 214.143,490.59 C220.137,490.892 228.764,492.013 234.42,490.113 C240.895,487.939 244.115,481.767 247.171,476.721 C249.121,473.507 249.734,472.878 253.019,471.488 C256.774,469.896 257.367,472.22 259.415,468.011 C262.785,461.091 258.567,453.383 251.274,453.463 M324.254,222.297 C326.17,222.467 344.965,212.521 346.063,222.297" fill-opacity="0" stroke="#3D3421" stroke-width="4.945"/>
    <path d="M196.353,279.498 C196.353,279.498 153.644,337.006 251.584,365.478 C251.584,365.478 348.387,383.701 393.368,335.871 C393.368,335.871 475.362,342.699 441.198,291.455 C441.198,291.455 422.406,280.636 405.893,311.385 C405.893,311.385 429.239,167.324 281.191,171.311 C281.191,171.311 225.39,162.2 198.059,208.892 L196.353,279.498" fill="#EEC3A0"/>
    <path d="M244.466,163.416 C244.466,163.416 265.751,82.142 371.538,88.592" fill-opacity="0" stroke="#3D3421" stroke-width="4.945" stroke-linecap="round"/>
    <path d="M313.238,141.85 C313.238,141.85 338.552,93.103 398.677,95.605" fill="#665435"/>
    <path d="M313.238,141.85 C313.238,141.85 338.552,93.103 398.677,95.605" fill-opacity="0" stroke="#3D3421" stroke-width="4.821" stroke-linecap="round"/>
    <path d="M398.628,196.315 C398.628,196.315 466.359,120.847 401.208,96.333" fill="#665435"/>
    <path d="M398.628,196.315 C398.628,196.315 466.359,120.847 401.208,96.333" fill-opacity="0" stroke="#3D3421" stroke-width="4.945" stroke-linecap="round"/>
    <path d="M421.208,262.754 C421.208,262.754 499.255,154.383 433.464,118.908" fill="#665435"/>
    <path d="M421.208,262.754 C421.208,262.754 499.255,154.383 433.464,118.908 M198.059,208.892 L196.353,279.498 C196.353,279.498 153.644,337.006 251.584,365.478 C251.584,365.478 348.387,383.701 393.368,335.871 C393.368,335.871 475.362,342.699 441.198,291.455 C441.198,291.455 422.406,280.636 405.893,311.385" fill-opacity="0" stroke="#3D3421" stroke-width="4.945" stroke-linecap="round"/>
    <path d="M296.565,297.152 C296.565,297.152 298.846,232.805 336.426,232.236 C336.426,232.236 363.757,234.516 355.788,298.859" fill-opacity="0" stroke="#30291B" stroke-width="3.685" stroke-linecap="round"/>
    <path d="M260.126,309.677 C260.126,309.677 264.11,305.122 270.376,309.677" fill-opacity="0" stroke="#30291B" stroke-width="2.967" stroke-linecap="round"/>
    <path d="M250.446,330.746 C250.446,330.746 253.864,344.413 269.238,344.982 C284.613,345.551 292.013,333.022 292.013,333.022" fill-opacity="0" stroke="#30291B" stroke-width="4.945" stroke-linecap="round"/>
    <path d="M208.31,290.317 C208.31,290.317 209.447,225.977 230.515,229.391 C251.584,232.805 251.015,286.903 251.015,286.903" fill-opacity="0" stroke="#30291B" stroke-width="3.685" stroke-linecap="round"/>
    <path d="M326.749,310.816 C326.749,310.816 312.513,312.523 317.065,278.36 C321.625,244.197 333.578,252.736 333.578,252.736 C333.578,252.736 352.939,257.288 347.814,285.192 C342.688,313.095 326.749,310.816 326.749,310.816" fill="#30291B"/>
    <path d="M343.875,269.327 C343.875,273.763 342.014,277.359 339.71,277.359 C337.414,277.359 335.547,273.763 335.547,269.327 C335.547,264.89 337.414,261.295 339.71,261.295 C342.014,261.295 343.875,264.89 343.875,269.327" fill="#FFFFFE"/>
    <path d="M230.563,306.257 C230.563,306.257 220.863,307.909 223.966,274.854 C227.071,241.795 235.218,250.058 235.218,250.058 C235.218,250.058 248.405,254.46 244.916,281.464 C241.427,308.465 230.563,306.257 230.563,306.257" fill="#30291B"/>
    <path d="M241.938,263.973 C241.938,268.41 240.431,272.005 238.572,272.005 C236.71,272.005 235.201,268.41 235.201,263.973 C235.201,259.537 236.71,255.943 238.572,255.943 C240.431,255.943 241.938,259.537 241.938,263.973" fill="#FFFFFE"/>
    <path d="M246.892,392.026 C247.342,396.329 243.24,401.447 242.394,405.716 C241.093,412.277 241.938,419.453 240.888,426.063 C240.404,429.109 238.983,431.487 238.125,434.357 C237.242,437.317 238.81,441.451 237.638,444.075" fill-opacity="0" stroke="#3D3421" stroke-width="4.945"/>
    <path d="M259.881,222.369 C259.881,222.369 212.364,199.934 211.001,172.803 C209.046,133.884 280.535,138.364 307.136,144.444 C344.863,153.057 389.105,169.018 396.452,206.864 C397.723,213.411 398.844,215.721 392.275,217.728 C378.802,221.84 354.901,215.932 341.861,213.274 C330.927,211.049 320.18,208.708 309.749,205.011 C303.957,202.96 298.045,199.883 291.707,199.494 C295.111,204.772 304.822,223.524 304.822,223.524 C304.822,223.524 283.845,213.046 281.092,204.905 C283.638,212.599 287.338,220.27 288.862,228.104 C281.724,227.306 273.474,216.842 269.606,211.939 C268.267,216.824 270.185,230.492 268.382,228.683 C266.581,226.877 262.246,222.13 260.542,222.948" fill="#665435"/>
    <g>
      <path d="M238.768,213.574 C238.768,213.574 244.002,190.894 256.214,212.701 M304.192,214.446 C304.192,214.446 309.426,191.766 321.638,213.574" fill-opacity="0" stroke="#30291B" stroke-width="4.945" stroke-linecap="round"/>
      <path d="M458.14,7.376 C537.391,70.85 459.834,118.68 459.834,118.68" fill="#665435"/>
      <path d="M458.14,7.376 C537.391,70.85 459.834,118.68 459.834,118.68" fill-opacity="0" stroke="#3D3421" stroke-width="4.971" stroke-linecap="round"/>
      <path d="M441.379,110.379 C441.379,110.379 508.653,79.767 455.534,7.409 C455.534,7.409 364.019,27.363 401.433,96.797" fill="#665435"/>
      <path d="M441.379,110.379 C441.379,110.379 508.653,79.767 455.534,7.409 C455.534,7.409 364.019,27.363 401.433,96.797" fill-opacity="0" stroke="#3D3421" stroke-width="4.977" stroke-linecap="round"/>
    </g>
    <path d="M415.015,111.115 C415.015,111.115 390.59,107.555 403.634,87.873 C403.634,87.873 412.413,73.882 427.589,81.706 C442.766,89.532 441.342,95.699 441.342,95.699 C441.342,95.699 440.156,124.871 415.015,111.115" fill="#C3282B"/>
    <path d="M415.015,111.115 C415.015,111.115 390.59,107.555 403.634,87.873 C403.634,87.873 412.413,73.882 427.589,81.706 C442.766,89.532 441.342,95.699 441.342,95.699 C441.342,95.699 440.156,124.871 415.015,111.115 z" fill-opacity="0" stroke="#3D3421" stroke-width="1.417"/>
    <path d="M428.468,83.031 C427.654,81.365 425.061,79.62 422.968,79.821 C423.776,81.3 425.879,81.808 426.148,83.63 C424.663,84.088 422.089,84.602 422.007,86.248 C423.858,85.911 425.913,85.185 427.769,85.355 C427.878,87.253 427.76,89.222 427.875,91.121 C430.369,90.432 427.992,87.921 429.101,86.598 C430.367,85.092 432.571,87.229 433.947,87.536 C434.476,85.512 432.605,84.111 430.833,83.61 C431.903,82.83 432.754,81.91 433.64,81.164 C431.992,80.401 429.501,80.526 429.395,82.663 C429.108,82.734 428.728,82.612 428.468,82.711" fill="#2F643B"/>
    <path d="M436.401,128.691 C436.401,128.691 414.695,116.942 433.715,102.951 C433.715,102.951 446.766,92.834 458.325,105.404 C469.882,117.978 466.427,123.279 466.427,123.279 C466.427,123.279 455.271,150.26 436.401,128.691" fill="#C3282B"/>
    <path d="M436.401,128.691 C436.401,128.691 414.695,116.942 433.715,102.951 C433.715,102.951 446.766,92.834 458.325,105.404 C469.882,117.978 466.427,123.279 466.427,123.279 C466.427,123.279 455.271,150.26 436.401,128.691 z" fill-opacity="0" stroke="#3D3421" stroke-width="1.417"/>
    <path d="M458.7,106.951 C458.504,105.108 456.668,102.576 454.637,102.045 C454.886,103.711 456.681,104.91 456.31,106.716 C454.76,106.634 452.164,106.233 451.523,107.749 C453.376,108.069 455.554,108.093 457.242,108.894 C456.688,110.714 455.898,112.523 455.353,114.342 C457.936,114.557 456.566,111.381 458.065,110.519 C459.77,109.541 461.102,112.304 462.292,113.068 C463.483,111.35 462.209,109.391 460.717,108.311 C461.991,107.946 463.108,107.374 464.195,106.979 C462.908,105.694 460.526,104.954 459.694,106.924 C459.398,106.893 459.087,106.649 458.807,106.651" fill="#2F643B"/>
    <path d="M457.902,124.483 C457.155,126.428 457.705,128.453 459.129,128.998 C460.552,129.546 462.311,128.408 463.061,126.459 C463.808,124.513 463.258,122.49 461.833,121.944 C460.41,121.396 458.652,122.533 457.902,124.483" fill="#FFFFFE"/>
    <path d="M455.251,130.862 C454.896,131.785 455.156,132.746 455.83,133.005 C456.505,133.267 457.343,132.725 457.698,131.801 C458.051,130.879 457.792,129.917 457.115,129.659 C456.439,129.397 455.605,129.938 455.251,130.862" fill="#FFFFFE"/>
    <path d="M215.523,188.386 C215.523,188.386 198.339,145.844 234.431,143.421 L283.669,143.421 C364.146,128.786 399.802,198.39 399.802,198.39 C441.403,230.482 405.893,311.385 405.893,311.385 C415.35,255.605 387.896,217.094 387.896,217.094 C317.511,211.264 291.707,199.931 291.707,199.931 L304.822,221.445 C295.257,219.492 282.323,208.892 282.323,208.892 L288.862,225.544 C279.378,222.501 269.606,211.073 269.606,211.073 L268.382,226.066 C247.856,221.659 215.523,188.386 215.523,188.386 C207.243,190.175 198.059,208.892 198.059,208.892" fill-opacity="0" stroke="#3D3421" stroke-width="4.945" stroke-linecap="round"/>
  </g>
</svg>
